<svg xmlns="http://www.w3.org/2000/svg" style="display: none;">
    <symbol id="icon-qq" viewBox="0 0 28 28">
        <title>qq</title>
        <path d="M4.219 12.594c-0.109-0.266-0.125-0.531-0.125-0.812 0-0.438 0.281-1.141 0.547-1.469-0.016-0.406 0.156-1.234 0.469-1.5 0-2.891 2.234-6.531 4.844-7.781 1.609-0.766 3.297-1.031 5.063-1.031 1.375 0 2.875 0.328 4.156 0.859 3.672 1.547 4.5 4.422 5.281 8.094l0.016 0.078c0.453 0.688 0.859 1.5 0.859 2.344 0 0.422-0.281 0.844-0.281 1.219 0 0.031 0.094 0.156 0.109 0.187 1.344 1.984 2.562 4.141 2.562 6.609 0 0.547-0.297 2.453-1.172 2.453-0.609 0-1.281-1.484-1.5-1.891-0.016-0.016-0.031-0.016-0.047-0.016l-0.078 0.063c-0.5 1.297-1.047 2.516-2.063 3.484 0.891 0.859 2.328 0.781 2.594 2.266-0.078 0.172-0.047 0.359-0.172 0.531-0.891 1.344-3.281 1.516-4.719 1.516-1.906 0-3.453-0.5-5.25-1.031-0.375-0.109-0.938-0.047-1.344-0.094-0.953 1.047-3.281 1.328-4.625 1.328-1.188 0-5.781-0.078-5.781-2.109 0-0.875 0.187-1.125 0.797-1.687 0.484-0.094 0.844-0.359 1.406-0.391 0.078 0 0.141-0.016 0.219-0.031 0.016-0.016 0.031-0.016 0.031-0.063l-0.031-0.047c-1.078-0.25-2.594-2.969-2.828-4.094l-0.078-0.047c-0.109 0-0.156 0.234-0.187 0.313-0.344 0.797-1.156 1.656-2.063 1.75h-0.016c-0.125 0-0.078-0.125-0.172-0.156-0.219-0.516-0.359-0.984-0.359-1.563 0-3.125 1.5-5.437 3.938-7.281z"></path>
    </symbol>
    <symbol id="icon-user" viewBox="0 0 32 32">
        <title>user</title>
        <path d="M18 22.082v-1.649c2.203-1.241 4-4.337 4-7.432 0-4.971 0-9-6-9s-6 4.029-6 9c0 3.096 1.797 6.191 4 7.432v1.649c-6.784 0.555-12 3.888-12 7.918h28c0-4.030-5.216-7.364-12-7.918z"></path>
    </symbol>
    <symbol id="icon-move-up" viewBox="0 0 32 32">
        <title>move-up</title>
        <path d="M22 16v12h2v-12h5l-6-6-6 6z"></path>
        <path d="M2 6h3v2h-3v-2z"></path>
        <path d="M6 6h3v2h-3v-2z"></path>
        <path d="M10 6h2v3h-2v-3z"></path>
        <path d="M2 13h2v3h-2v-3z"></path>
        <path d="M5 14h3v2h-3v-2z"></path>
        <path d="M9 14h3v2h-3v-2z"></path>
        <path d="M2 9h2v3h-2v-3z"></path>
        <path d="M10 10h2v3h-2v-3z"></path>
        <path d="M10 22v6h-6v-6h6zM12 20h-10v10h10v-10z"></path>
    </symbol>
</svg>
